<mxfile host="app.diagrams.net" modified="2021-08-15T08:53:18.406Z" agent="5.0 (Windows)" etag="ljPDrMtX3UBj78qyL87P" version="14.9.6" type="github">
  <diagram id="aq44EoE90lg8WLvPTB9M" name="Page-1">
    <mxGraphModel dx="868" dy="423" grid="1" gridSize="10" guides="1" tooltips="1" connect="1" arrows="1" fold="1" page="1" pageScale="1" pageWidth="850" pageHeight="1100" math="0" shadow="0">
      <root>
        <mxCell id="0" />
        <mxCell id="1" parent="0" />
        <mxCell id="Vu51oKbgxh7ki2RueLfb-17" style="edgeStyle=orthogonalEdgeStyle;rounded=0;orthogonalLoop=1;jettySize=auto;html=1;" parent="1" source="Vu51oKbgxh7ki2RueLfb-1" target="Vu51oKbgxh7ki2RueLfb-8" edge="1">
          <mxGeometry relative="1" as="geometry">
            <Array as="points">
              <mxPoint x="105" y="530" />
            </Array>
          </mxGeometry>
        </mxCell>
        <mxCell id="Vu51oKbgxh7ki2RueLfb-1" value="" style="rounded=1;whiteSpace=wrap;html=1;" parent="1" vertex="1">
          <mxGeometry x="10" y="120" width="190" height="250" as="geometry" />
        </mxCell>
        <mxCell id="Vu51oKbgxh7ki2RueLfb-7" value="Parent Process " style="text;html=1;strokeColor=none;fillColor=none;align=center;verticalAlign=middle;whiteSpace=wrap;rounded=0;" parent="1" vertex="1">
          <mxGeometry x="20" y="100" width="140" height="60" as="geometry" />
        </mxCell>
        <mxCell id="Vu51oKbgxh7ki2RueLfb-8" value="Database" style="shape=cylinder3;whiteSpace=wrap;html=1;boundedLbl=1;backgroundOutline=1;size=15;" parent="1" vertex="1">
          <mxGeometry x="300" y="510" width="60" height="80" as="geometry" />
        </mxCell>
        <mxCell id="Vu51oKbgxh7ki2RueLfb-15" value="" style="edgeStyle=orthogonalEdgeStyle;rounded=0;orthogonalLoop=1;jettySize=auto;html=1;" parent="1" source="Vu51oKbgxh7ki2RueLfb-9" target="Vu51oKbgxh7ki2RueLfb-14" edge="1">
          <mxGeometry relative="1" as="geometry" />
        </mxCell>
        <mxCell id="Vu51oKbgxh7ki2RueLfb-9" value="" style="outlineConnect=0;fontColor=#232F3E;gradientColor=none;fillColor=#BC1356;strokeColor=none;dashed=0;verticalLabelPosition=bottom;verticalAlign=top;align=center;html=1;fontSize=12;fontStyle=0;aspect=fixed;pointerEvents=1;shape=mxgraph.aws4.event;" parent="1" vertex="1">
          <mxGeometry x="85" y="150" width="40" height="40" as="geometry" />
        </mxCell>
        <mxCell id="Vu51oKbgxh7ki2RueLfb-10" value="Insert_TO_Database" style="rounded=1;whiteSpace=wrap;html=1;" parent="1" vertex="1">
          <mxGeometry x="30" y="290" width="150" height="30" as="geometry" />
        </mxCell>
        <mxCell id="Vu51oKbgxh7ki2RueLfb-16" value="" style="edgeStyle=orthogonalEdgeStyle;rounded=0;orthogonalLoop=1;jettySize=auto;html=1;" parent="1" source="Vu51oKbgxh7ki2RueLfb-14" target="Vu51oKbgxh7ki2RueLfb-10" edge="1">
          <mxGeometry relative="1" as="geometry" />
        </mxCell>
        <mxCell id="Vu51oKbgxh7ki2RueLfb-14" value="&lt;div&gt;Transformation/&lt;/div&gt;&lt;div&gt;Massage&lt;/div&gt;" style="rounded=1;whiteSpace=wrap;html=1;" parent="1" vertex="1">
          <mxGeometry x="50" y="210" width="110" height="40" as="geometry" />
        </mxCell>
        <mxCell id="Vu51oKbgxh7ki2RueLfb-20" value="" style="rounded=1;whiteSpace=wrap;html=1;" parent="1" vertex="1">
          <mxGeometry x="330" y="140" width="1130" height="300" as="geometry" />
        </mxCell>
        <mxCell id="Vu51oKbgxh7ki2RueLfb-21" value="Child Process" style="text;html=1;strokeColor=none;fillColor=none;align=center;verticalAlign=middle;whiteSpace=wrap;rounded=0;" parent="1" vertex="1">
          <mxGeometry x="570" y="120" width="150" height="20" as="geometry" />
        </mxCell>
        <mxCell id="Vu51oKbgxh7ki2RueLfb-43" value="" style="edgeStyle=orthogonalEdgeStyle;rounded=0;orthogonalLoop=1;jettySize=auto;html=1;" parent="1" source="Vu51oKbgxh7ki2RueLfb-23" target="Vu51oKbgxh7ki2RueLfb-24" edge="1">
          <mxGeometry relative="1" as="geometry" />
        </mxCell>
        <mxCell id="Vu51oKbgxh7ki2RueLfb-23" value="" style="points=[[0.145,0.145,0],[0.5,0,0],[0.855,0.145,0],[1,0.5,0],[0.855,0.855,0],[0.5,1,0],[0.145,0.855,0],[0,0.5,0]];shape=mxgraph.bpmn.event;html=1;verticalLabelPosition=bottom;labelBackgroundColor=#ffffff;verticalAlign=top;align=center;perimeter=ellipsePerimeter;outlineConnect=0;aspect=fixed;outline=standard;symbol=timer;" parent="1" vertex="1">
          <mxGeometry x="330" y="230" width="50" height="50" as="geometry" />
        </mxCell>
        <mxCell id="hMqJd1VVKTTrly270Pj9-30" value="" style="edgeStyle=orthogonalEdgeStyle;rounded=0;orthogonalLoop=1;jettySize=auto;html=1;" parent="1" source="Vu51oKbgxh7ki2RueLfb-24" target="hMqJd1VVKTTrly270Pj9-4" edge="1">
          <mxGeometry relative="1" as="geometry" />
        </mxCell>
        <mxCell id="Vu51oKbgxh7ki2RueLfb-24" value="Fetch where Processed =&quot;No&quot;" style="rounded=1;whiteSpace=wrap;html=1;" parent="1" vertex="1">
          <mxGeometry x="425" y="210" width="90" height="90" as="geometry" />
        </mxCell>
        <mxCell id="Vu51oKbgxh7ki2RueLfb-39" value="Processed" style="swimlane;fontStyle=0;childLayout=stackLayout;horizontal=1;startSize=26;horizontalStack=0;resizeParent=1;resizeParentMax=0;resizeLast=0;collapsible=1;marginBottom=0;" parent="1" vertex="1">
          <mxGeometry x="360" y="530" width="140" height="78" as="geometry" />
        </mxCell>
        <mxCell id="Vu51oKbgxh7ki2RueLfb-40" value="NO" style="text;strokeColor=none;fillColor=none;align=left;verticalAlign=top;spacingLeft=4;spacingRight=4;overflow=hidden;rotatable=0;points=[[0,0.5],[1,0.5]];portConstraint=eastwest;" parent="Vu51oKbgxh7ki2RueLfb-39" vertex="1">
          <mxGeometry y="26" width="140" height="26" as="geometry" />
        </mxCell>
        <mxCell id="Vu51oKbgxh7ki2RueLfb-42" value="NO" style="text;strokeColor=none;fillColor=none;align=left;verticalAlign=top;spacingLeft=4;spacingRight=4;overflow=hidden;rotatable=0;points=[[0,0.5],[1,0.5]];portConstraint=eastwest;" parent="Vu51oKbgxh7ki2RueLfb-39" vertex="1">
          <mxGeometry y="52" width="140" height="26" as="geometry" />
        </mxCell>
        <mxCell id="Vu51oKbgxh7ki2RueLfb-45" value="" style="whiteSpace=wrap;html=1;aspect=fixed;" parent="1" vertex="1">
          <mxGeometry x="560" y="200" width="220" height="220" as="geometry" />
        </mxCell>
        <mxCell id="Vu51oKbgxh7ki2RueLfb-46" value="Scope-T109 CALL" style="text;html=1;strokeColor=none;fillColor=none;align=center;verticalAlign=middle;whiteSpace=wrap;rounded=0;" parent="1" vertex="1">
          <mxGeometry x="580" y="170" width="90" height="20" as="geometry" />
        </mxCell>
        <mxCell id="Vu51oKbgxh7ki2RueLfb-48" value="&lt;div&gt;Scope&lt;/div&gt;&lt;div&gt;ALL Other APIS&lt;/div&gt;" style="text;html=1;strokeColor=none;fillColor=none;align=center;verticalAlign=middle;whiteSpace=wrap;rounded=0;" parent="1" vertex="1">
          <mxGeometry x="930" y="150" width="90" height="40" as="geometry" />
        </mxCell>
        <mxCell id="Vu51oKbgxh7ki2RueLfb-49" value="if t109 sucess " style="rhombus;whiteSpace=wrap;html=1;" parent="1" vertex="1">
          <mxGeometry x="590" y="209" width="130" height="80" as="geometry" />
        </mxCell>
        <mxCell id="Vu51oKbgxh7ki2RueLfb-52" value="" style="edgeStyle=orthogonalEdgeStyle;rounded=0;orthogonalLoop=1;jettySize=auto;html=1;" parent="1" source="Vu51oKbgxh7ki2RueLfb-50" target="Vu51oKbgxh7ki2RueLfb-51" edge="1">
          <mxGeometry relative="1" as="geometry" />
        </mxCell>
        <mxCell id="hMqJd1VVKTTrly270Pj9-10" style="edgeStyle=orthogonalEdgeStyle;rounded=0;orthogonalLoop=1;jettySize=auto;html=1;" parent="1" source="Vu51oKbgxh7ki2RueLfb-50" target="hMqJd1VVKTTrly270Pj9-8" edge="1">
          <mxGeometry relative="1" as="geometry">
            <Array as="points">
              <mxPoint x="655" y="350" />
              <mxPoint x="825" y="350" />
            </Array>
          </mxGeometry>
        </mxCell>
        <mxCell id="Vu51oKbgxh7ki2RueLfb-50" value="CALL API " style="rounded=1;whiteSpace=wrap;html=1;" parent="1" vertex="1">
          <mxGeometry x="610" y="310" width="90" height="30" as="geometry" />
        </mxCell>
        <mxCell id="Vu51oKbgxh7ki2RueLfb-53" style="edgeStyle=orthogonalEdgeStyle;rounded=0;orthogonalLoop=1;jettySize=auto;html=1;entryX=1;entryY=0.769;entryDx=0;entryDy=0;entryPerimeter=0;" parent="1" source="Vu51oKbgxh7ki2RueLfb-51" target="Vu51oKbgxh7ki2RueLfb-40" edge="1">
          <mxGeometry relative="1" as="geometry">
            <mxPoint x="580" y="580" as="targetPoint" />
            <Array as="points">
              <mxPoint x="590" y="380" />
              <mxPoint x="590" y="580" />
              <mxPoint x="500" y="580" />
            </Array>
          </mxGeometry>
        </mxCell>
        <mxCell id="Vu51oKbgxh7ki2RueLfb-51" value="&lt;div&gt;Database Update&lt;/div&gt;&lt;div&gt;PROCESS &lt;/div&gt;" style="rounded=1;whiteSpace=wrap;html=1;" parent="1" vertex="1">
          <mxGeometry x="610" y="360" width="110" height="40" as="geometry" />
        </mxCell>
        <mxCell id="Vu51oKbgxh7ki2RueLfb-55" value="Update Processed= YES" style="text;html=1;strokeColor=none;fillColor=none;align=center;verticalAlign=middle;whiteSpace=wrap;rounded=0;" parent="1" vertex="1">
          <mxGeometry x="570" y="490" width="130" height="40" as="geometry" />
        </mxCell>
        <mxCell id="Vu51oKbgxh7ki2RueLfb-57" value="" style="aspect=fixed;html=1;points=[];align=center;image;fontSize=12;image=img/lib/azure2/general/Globe_Error.svg;" parent="1" vertex="1">
          <mxGeometry x="1150" y="112" width="30.55" height="36" as="geometry" />
        </mxCell>
        <mxCell id="Vu51oKbgxh7ki2RueLfb-60" value="" style="edgeStyle=orthogonalEdgeStyle;rounded=0;orthogonalLoop=1;jettySize=auto;html=1;" parent="1" source="Vu51oKbgxh7ki2RueLfb-59" edge="1">
          <mxGeometry relative="1" as="geometry">
            <mxPoint x="850" y="305" as="targetPoint" />
          </mxGeometry>
        </mxCell>
        <mxCell id="Vu51oKbgxh7ki2RueLfb-59" value="" style="shape=image;verticalLabelPosition=bottom;labelBackgroundColor=#ffffff;verticalAlign=top;aspect=fixed;imageAspect=0;image=data:image/png,iVBORw0KGgoAAAANSUhEUgAAALcAAABECAYAAADDaKQoAAAFiUlEQVR4nO2cXWvbZhiG/RN8qP+Rv+FfoIPkLDvQyLqjfRg2SiGGNs3A2wr76FFXSqGweaet16Ssn5uiLRvMSVpjJWYk7UscKllWa0v3DjoJRZZlpVHS+PV9wX1gfb2v4kuPHsmQAgiRlMK7ngAhJwXlJtJS8DwPDDOp8X0fvu8ny33KFxMhudDv9+G6LlzXxWAwSBS8oKoqFEVBsVhkmDMfRVGgqioMw4Dv+zg4OEC3200UvNAyTTDMJMYwDFiWBSEEXNcdllvTNAghTvQWQkheCCGgaRqKxSJUVYXneWi323AcB57nHdq2QLHJpCGECFsUADBNE7ZtD8v9LiZHyHEJenAAaLVasCyLchM5oNxEWig3kRbKTaSFchNpodxEWig3kRbKTaSFchNpodxEWig3kRbKTaSFcpNTwfc9/L5zF9fXlrG0soDF+jyWVhZwfe0yftv5BZ4/yH1Myk1OnGfib1x58CkW6/Mj8/X9T/BU/JXruFLL3Ww2USqVMDMzcyjVajXzMXRdx8zMDEqlEprN5lvNo1qtZhpz1HZZ9z8KtVoN5XIZnU4H5XIZtVot1+MHbL74I1XqeBrP13IbW3q5Z2dnD0nZ6XQwNzeXSZZer5fLFx+VM01U2eR2Xlv44t6HY4W+vXkTG88NLK+ew+XVD2C/epnL+FMnd9ryOIHcuq4fax7TKve95s9jxb61fgUA4PYdXH18AYv1eaw8+ymX8adS7qB6B9IGn4O2Rdf1UOx4K1OtVsNl0VYlLmAgT6/XC9fVarXU1iiL3PF5zc3NodPphMsrlUrYigXr4vuVSiVUKpWRckfPMT5usC7Lxfb94/OpYl99fAG9fhcA8MPaUrj820efjz12FqZS7mi7EW89ovvE1+m6HgoLpFfkJLmTtosSlWrUc0KtVhsSLnoecdmj+wXzCS7mJLmj2yUdP3r+46jU3wuFXV49h+XVc4c+71rbAIDbmzeHxM+DqZe72WxiYWEhrHAAwiqb1nPH5clL7qNU9EDSUXMN9ktal9SWJLVhwQX9Nu3LYkTuPWsHBz2BW+tXsFifh9nZAACs//sgsarnwVTKHW1LgrchSZUyqaoHt/xSqYTZ2dlTlzs632AO4+SOt2HBceLSxtuzaOuzu7t7ZLm/e3Q+rNJPtu+Eyw96b/6bwp61kyj2Nw8/yzxGGlMpt67rYb+cVLkD4sLE5TuJtiRN7vh80tqrtP2i8xtXuUf9LbKw+qw21GPvWTsA3ggebVOiWXn6Y+Yx0pg6ueOvAuNfWtqtvlqthsIGVTza08b73ZOSO17Fx8mdNr+0njt6zm/TlnRfv0wU+PbmzfDNSDxLKwuwXh1kHiMN6eVO+hEn/gXFb8ejxI8er1wu48aNG0MPaUG7EF2X1FYkPZgdtS0Jlo+qzkl3mui+Wd6WxC+Io74y3Hi+dqQfcf7ZO95r1yhSy03OBk/FOr66/3Gq1F/++hE2X/yZ67iUm5wKA6+PJ9t1XNMv4eLd97FYn8fFuxqu6ZfwZPsO+t7r3Mek3ERaKDeRFspNpIVyE2mh3ERaKDeRFspNpIVyE2mh3ERaKDeRFspNpIVyE2mh3ERaKDeRFspNpIVyE2mh3ERaMsndMk0wzCRGUZR0uTVNgxDidC43Qo6JEAKapqFYLEJVVXieN1ruoLwzzCRFURQYhoH9/X2YpgnbtoflVlUViqK888kyTJYoigJVVWEYBnzfR6PRQLvdhuM4w3LHFxBy1vE8D/v7+2g0Gtja2oIQAq7rwvf9Q9sV2u02TNNEq9VimImJaZpot9sQQqDb7WIwGAzL7TgObNuGbduwLIthznwCXx3Hgeu6iWID/7clDDOp8X0/UWyAP+IQiaHcRFooN5EWyk2khXITaaHcRFooN5GW/wBUzuPePvDGTwAAAABJRU5ErkJggg==;direction=south;" parent="1" vertex="1">
          <mxGeometry x="730" y="210" width="49.28" height="132.64" as="geometry" />
        </mxCell>
        <mxCell id="Vu51oKbgxh7ki2RueLfb-61" value="" style="points=[[0.145,0.145,0],[0.5,0,0],[0.855,0.145,0],[1,0.5,0],[0.855,0.855,0],[0.5,1,0],[0.145,0.855,0],[0,0.5,0]];shape=mxgraph.bpmn.event;html=1;verticalLabelPosition=bottom;labelBackgroundColor=#ffffff;verticalAlign=top;align=center;perimeter=ellipsePerimeter;outlineConnect=0;aspect=fixed;outline=eventInt;symbol=error;" parent="1" vertex="1">
          <mxGeometry x="710" y="250" width="25" height="25" as="geometry" />
        </mxCell>
        <mxCell id="Vu51oKbgxh7ki2RueLfb-62" value="" style="rounded=1;whiteSpace=wrap;html=1;" parent="1" vertex="1">
          <mxGeometry x="850" y="190" width="590" height="230" as="geometry" />
        </mxCell>
        <mxCell id="Vu51oKbgxh7ki2RueLfb-69" style="edgeStyle=orthogonalEdgeStyle;rounded=0;orthogonalLoop=1;jettySize=auto;html=1;entryX=0;entryY=0.5;entryDx=0;entryDy=0;" parent="1" source="Vu51oKbgxh7ki2RueLfb-63" target="Vu51oKbgxh7ki2RueLfb-65" edge="1">
          <mxGeometry relative="1" as="geometry" />
        </mxCell>
        <mxCell id="Vu51oKbgxh7ki2RueLfb-70" style="edgeStyle=orthogonalEdgeStyle;rounded=0;orthogonalLoop=1;jettySize=auto;html=1;" parent="1" source="Vu51oKbgxh7ki2RueLfb-63" target="Vu51oKbgxh7ki2RueLfb-64" edge="1">
          <mxGeometry relative="1" as="geometry" />
        </mxCell>
        <mxCell id="hMqJd1VVKTTrly270Pj9-11" style="edgeStyle=orthogonalEdgeStyle;rounded=0;orthogonalLoop=1;jettySize=auto;html=1;" parent="1" source="Vu51oKbgxh7ki2RueLfb-63" target="hMqJd1VVKTTrly270Pj9-9" edge="1">
          <mxGeometry relative="1" as="geometry" />
        </mxCell>
        <mxCell id="Vu51oKbgxh7ki2RueLfb-63" value="" style="shape=image;verticalLabelPosition=bottom;labelBackgroundColor=#ffffff;verticalAlign=top;aspect=fixed;imageAspect=0;image=data:image/png,iVBORw0KGgoAAAANSUhEUgAAAEQAAABfCAYAAABRAmHqAAAHV0lEQVR4nO2c7W/bxh3H+W/VSRNka7MWSoIVS4YhWeCiQNcNA/aiW2Zkr4phwFDsqQNW2I7dOHGzpH7o4sKr7HZL0jhpnMRp6jq2LFmSFcvPImVZJCWKEsnPXvhhES3LpiybVsIv8AVsyXe8++B3vzvekRbwVCTB7QbsN3lAbPKA2OQBsckDYpMHxCYPiE0eEJuKgMSnp7n/cIjPev9ds75x8xbRyUlyur4zILIs4+//oqjyu/cGd8h775XJZPnq9gCx2NOKyq8DCYZCG2jXIhAAUZIqbrsHxCYPiE0eEJs8IDZ5QGzygNjkAbHJA2KTB8QmD4hNHhCbdgWIBeiGhaIbpDSDdM4gVzAxrYqqc6x9BWQNxoSk8enYEk0PF7kyLPFoRkXVjT2Bsm+AGJaFmCnw4f0FTl4N89qlIK9eDPKDtiDHPw7R0B8nkMiS32Uq+wKIZYGiG/xjcIETH09w8EKAl5rG1l3XPMbRtiC/6n3K5ccirUMJOkaSfDunktYMjCpC2hdAdMMikMhyvD20AcY6lKYxDjYHePXiSuT4Loc42xnh4qMEs7JO3qgOFNeBWMCyZvDJiMSR1vGSMDZzXdMYh1oC/O3reeblPLphkTcsrB2wcR1I3rSIJHP8aWCOwy2lo2Mr+9pDND5Y5HZMZmQ+g6qbFUNxDYhpQUjU+Ovded7sjnKsPcSBZucwXmoa4+ULAV6/FORHV8Oc7ojwm74pHk6rqLrpuFOuAMkbFiFR41xfnNcuBamrEMRmPtwS4GfXJ7nzVHaccF0BktIM3h+Y45WLznKG06g51x9HyhQcDZ8dAbk5+JhofJbBoW8cAYkt5Vam1+bKcsZ2fbojwsNp1VGUiJLErdt36O77yrGFD9q6+KCti+7efkdAJiSNwy2Bqg8Vu09eDTMQkylUAGStb068DqSjp89xhPzwysYF2E58sDnA0bYgpzsinOmMcLojwrv+KZ4sZDAcjJkdAen58g7fPAlxZ/CBIyDJbIHf35zllYvj1FUIoO6Z2eVYe4hT18L88fYc9+IKA09l7k0pDM9nWMruYQ5Z+6GSWSaQ0DjbFeVI6zgHKsglh1oCnLoWpmUoQdeTJF+ElwmKGn0Ty/z5zjytjxIk1ILjTrkCxGJlQTaeyPKHW7OcvBrmkMPh82Z3lEczKsuawf1phc9DKTqfJHnXP8XRtiBvX58knNRqA8iacgWTOTnPyHyGwbjC11Pb99hilgUlT8eIxFufTvLGPyc41h7i+x+Nc6B5jPruKA+mVS49Fvltf5yG/ji3JtP7G4hTWRaousmimmcmrRNIZDnTGSm55K/vjnI7JvO7L6d5+UKAQy0BWoYSW16jpoAUTItv5zK8d2OGX/un+MVnMQ5uMnXXd0e5N6Xw/sAcp66F+fG1MNfHlra8Rk0B0Q2L/oll3rgywYHmsbLrmPruKEFRw7TAMC0M09rWjltNASmYFkMzKuf647zTE6O+O7rpDWF9d5TBuMJf7s7z084IZ7si9AZTW16jpoBYFsg5gzk5z9SyzpOFDD/5JMyhFzWH2KXoBpcfi5zpjHC8PcTrl4IcaR2nbnWWuT+t8OH9Rd7pifHznhj9E8tb1lnTQNZ26R9Mq/QElrj8WOSXvTG+99E4b/1rkgmpxtYh1dAalGzeRMoUuB5Y4r0bM/z93gKLat5xfTUP5FkZpoWsGyyqeVKaQa7gfB/xuQJSDXlAbPKA2OQBsckDYpMHxCYPiE0eEJs8IDZ5QGyqChBFUZ4bIMPfjTAzO1tR2aJXzL4bGaH3c38RkFrzf/57gwdDQ2Sz2Z0DAcjpOqIk1axlWa4IxKZAXnR5QGzygNjkAbGpLBDLstB1HVVVkWWZ5eXlfel0Oo2iKGiahmEY1QdSKBSQZZlEIlGTTqVS5HK56gBRFMX1DlUTTKHg7HGKdSCmaZJKpVzvxG7YSbQIazCSyaTrDd9Na9r2zncE4LmNDLvz+a3PeARVVV1v6F55aWnrRykEtxu5185kMh6QZy1J0m4AGaXxhIAglHGDf0M5f4OAr2m05Of/L3sev/16w434nqm7VB1OrJf57zPViZC+86U7UqLT9s6MNvmKyvobBIQTjYwW1S1wvq8YzvrvFVhRFDeB+DkvCAiCD98JO5CV74o79+xnq5FoizZ/Q+kI3K5Tqc2fQtp1IKNNvtXGr3SuCMhwIz7BR+Pwxmha+btSwHbucnlkz4ZMSSCblFuPgHVga1FWnRwiimItA7El2tXPdgKlxoFsHFL2ROzU+3fIbJVDNvl+e9fb3OVWrO4C2eYsY0+qo02+4qnZocvtzLsMZLvrkOrmkHJ3vq4DWYdQbqW6ujir1ixjlXkb6YW7lym3SgUQ0um0643cK4uiiGmWfzFaME0TSZJcb+xeeDvnvQKAruuuN3a3vdVQKQICkMvlXG+02zCKgMDKeczztr/q9LGIkgdV2Wy25nfhFUWp6BSv7FGmrusoikIqlUKSJERR3LdOJpOk02k0TdtyJqkYyIuo/wH7/YvaR/EphAAAAABJRU5ErkJggg==;" parent="1" vertex="1">
          <mxGeometry x="860" y="247.5" width="60.84" height="85" as="geometry" />
        </mxCell>
        <mxCell id="Vu51oKbgxh7ki2RueLfb-64" value="" style="shape=image;verticalLabelPosition=bottom;labelBackgroundColor=#ffffff;verticalAlign=top;aspect=fixed;imageAspect=0;image=data:image/png,iVBORw0KGgoAAAANSUhEUgAAAEQAAABfCAYAAABRAmHqAAAHJ0lEQVR4nO2c23PbVB7H9W9RUjaUAtvxtrtLgCndhwWG3enAzk6H6bTkAWbgiWF4KOxCLk2TbFqXpNdN2iZpM22hhWYYIE1bx7fYzq2JE0uyJFvWzZK+PJiE+MSxJdmu7FTfme9DHB+dcz46v3NOfjoKBU9FotxuQKPJA0LIA0LIA0LIA0LIA0LIA0LIA0KoCAjH8whHIk3tXE6qDZBHgRkMX7laZLc758TXJyYQTySqA6JpGq6NjW8B0ozKZDL49rs7jstTAEAzzBYYzQoEQFVt94AQ8oAQ8oAQ8oAQ8oAQ8oAQ8oAQ8oAQ8oAQ8oAQ8oAQqjkQ0wQkzcACpyKYkhCmZTwWVCh5A6bpuJ221DBA5LyBUEpG7y80jo4t4O2LCbxzKYEPri9hYIpGIq1AzhuOG2tVDQHENIEILePY+CL2nArhmc6ZDe/qmsGeUyF8OLGEnx+LiLMK4qyCZUGFqOrQjdoOHdeBmCYgawY+mljC8z3FMDa7pSuIP5+Oos0/i9e/mcX7owu4GuLA5PKoJRPXgWiGiZk1CX+/EMeurtIw1v1sVwFMS1cQz50M4uW+ML74IYk1UXPcCVKuAjFMIKPouDHL49Wzs2VhlPKurhm84o/i5E8pRBkZi7yKjKJXNWJcA8Lk8rg7n8F/Jlfx3sgc9vZuHy7l/NzJIA6cjuDw8ByOji7gv5OrmFzMIqvojlYmV4Bwso7BhyzeGIyhpUKY2PUfTgbx5oU4vk1koOgm7DJxBch4lMcbQ7Gagtjs3d1BHByMYYFXkbcZP64AOXJtYcvyWmu/3BfG0EMWvKzbBrKUTDkydaLvPIZGrtsG8trZWbR0BesKZG9vCF9NroKV8raBnOg778jUib7z6PZfsg3kn5fn0Fpmz+FktWntCeLVs7M4NBTDoaEY3rqYwIUAC0GxP0KqAnLm8qhtIP1TNP56Jlpx31EJwou9YfgGInjFH8W/r85jPMrjdkLA7YSAHxayWORVqLr9OWTy/owjO55DlgUNn9xaxt7eEFq6g9hlE0ZL1wz29Yfx6XfLOPuAwXCIw/2VHKaTOXz94xo6flxDmJahO1h3XZlUddPEsqCi/xcab16I44VTITxrY7Ts6w/j8kwaq1kNgTUJI6E0zj1i8fndFew/HcHBwRhuxgVoDnZorm3MNMMEJ+uIswoCqxIeJAt32IqDaxJ4WceduQz+NTKHv5yJYv9ABC/2hrC7O4g2fxRXwhxuzPI4Nr6Id0fm8MW9ZGMDcSJRM5DMaoinFcTTCo5cm8cLJZbvNn8U/w+m4X/AYP9ABLu7g3j7YtxSHU0FZElQ8cmtZRwensPh4Tm81BcuGVLrI2QixuP4+CLeG5nHl/dWLdXRVECCKQn/uJxAa08IrT3bzztt/iiuz/LIqgayqg5B0SGq1pJLTQVkNauhf4rGZ3dW8NmdFfxpIFJyhWrzRzEcSuN8gMXBwRj29YdxdGzBUh1NBUTVTQiKDjqXB53L4+Obj/HHEmHz1MwhpEIpGZ/fTeKti3EcOhfD/tMRtPYUVplrEQ4PkjkMPWTxvyka41He0jWbGohhAikxj1BKxv2VHM49YvG3czG8cymBu/MZ23/pAk0OZLMME3gsqLgVF3AzLmBJUB1lznYMEKAARTNMaIbpOI24o4DUQh4QQh4QQh4QQh4QQh4QQh4QQh4QQh4QQlUDyeWkHQNEUVWM35hwXH7jBaKp+9NbgNAM03S+ees2gqFQ9UCyoohYPI7v7002tZPJVWia87Mm3kuIhDwghDwghDwghDwghCwBMU0ThmFA1/WGs2EYMGt4RHpbIIqiQBAEsCyLVCrV8GZZFplMBoqi1BaIJElgGMb1DlYLR5bl6oDoug6O41zvTC3N8zwMw97Z+o1X3Zt9VJQbLfm89TNqlK7rOxbGuhmGga5bO6dG7bQw2c4cx1kD4nZDn6QlqfL/FnEAJICOAxQoqoyPj24pN3qcgq8zUPLz38u2Y5Ssb6y96NrtY86BMAzzBEbIWHvpjpToNAkk0OkrKjt6nAJ1oAOB9e9Md8C3GcJYOyjKh45p5+2ttBzXGcgo2ikKFOWD7wAJpPC74jte/Fmg01cMaB1aiRFo1Txf/khFXYEEOn2/Nb4QZkVApjvgK3G3N4dWPYDQNO1+yJQEsk25og6TIUP+7NDlluDGBrIJAvVb6FUzf6y7XIqxoYGQk+7GnFRFyDQukIpzSKlJ12p95V1uK+8ekIqrTP2AlMufuAik8j6kHiGTTqe3heE6kA0IZXaqBSi/f6fUNexYFMU6A2kyV0oFPFVAMplMWRhPFRCapi3lRChJklxv7JOw1RwrBQCiKLre4Ho6l8tZgrEBBChk291ueD1sJSlUEghQSDbvlJQix3G2ksslgaxLURTwPO96p5yY5/mqHlaVfZRpmiZUVYUkSRBFsWEtSRJUVa3JI03vYTehXwFG07ZnPeo2wQAAAABJRU5ErkJggg==;" parent="1" vertex="1">
          <mxGeometry x="1037" y="325" width="68" height="95" as="geometry" />
        </mxCell>
        <mxCell id="Vu51oKbgxh7ki2RueLfb-65" value="" style="shape=image;verticalLabelPosition=bottom;labelBackgroundColor=#ffffff;verticalAlign=top;aspect=fixed;imageAspect=0;image=data:image/png,iVBORw0KGgoAAAANSUhEUgAAAEEAAABZCAYAAABhckmzAAAHAUlEQVR4nO2b+09b5xnH/W81ydLmVlVzQWJbp03Vom5qVVWTpu4mhDa1P0yTJmU/RNoq7rBQaJqwNKEQoA1R2pEBEdCRCl+5hJu52Mc+Pvaxj31un/3gBAi+xMeAL+E80vcXH97L8/HzPu/7PuY4sA1HpSdQDZYFISQINa1DQfD6fDycmGRgcGhXDycma06PpqfZCARKg3Bv7P5zAAYGh0qiWmnb2tpmcuqRpTYOyCyBgwBqFQJgee42BGwIgA0BsCEANgTAhgDYEAAbAmBDAGwIgA0BOAYIJqDqJuGkxlZMZTuuIio6mmFiltSjdasoBN0wkVI67mCS5kc7NH21xp/vrdM1E8IbTBJL6ejG8aOoKARR0eiYCfLGv7ycanXt6kybG+c1H58/DhNOapb7tWoVg6AbJt2zIeo/9XGm1c0rLa7ndKbNTV2Pj8bRNZq+WufjsQ1ufC+wKqZQNMPSWC+yikDQTZMNKc37d57wg7ZsAM90qtXFax0eznd6uNDpoa7Hx2+GVri/KBFP69Y8LWBlh2ACimYwuRbnp9cX8gLIp9Otbt79YpnvAgmiik48raPqh0uiZYWgGyYJ1WApnKJjOkhdj88yhFdaXJzr8PDBwBO6Z0PccUdYEBSSmkGpObSsEHwhhb+Pb1HX4+NCpydnLihGp1pdnG13c7HLw6UuLw29fv45uc12XC0JRNkgLIVTfDS2sbsTlOJ8Pj1LolfGN5HT1iOibBC6ZkIlh39xucJFXY+P6Q3Z8u5hGcLdB5N8OzVrGcIvby1ztr208C9WF7s8dEwHiSrWdo6BwSGudvcXLcfV7n7a+m5bhvDjPv+RL4ODutDp4R8T20QsHrBKgtB980vLEH57d5XznZ4jDf/znR4u9y/x3u1l3ru9zK+/XGHUHyWhWl8O/x75pmg5tgWR5dV1yxBG/FF+9vnioaLhdKuLN3t8vHV9gcv9S/zt202m1uJMPNXjrQShhIZmMTOWLTEKCY1PpnZo6PNzrsPDaYvb49l2Nz+/sUjfnMB/V+M8Wo/j2knycDXO74dX+ePoGnNbiZIuXGU9J4iKxqg/yod3V3Fe83Guw8Or7e6iVP+pj2+WY4iKzkxApn06yNWJLf4wssqlLg8NvX7GFiVSmoGqm6R1E7VIIOU9MZomimYgJnVCssaOrBYtIaGR0gxG/VHevrnIpS4vF7syEE+3umjo9TPkFRnwRLjcv8SP+vx8NLZefRBKsXjaIBBT8QsKfkHh/TtPONeRvZQaev0MekWuPxZw9vg40+bmV7eWihqj6iFsSGmavl7nnVtLvHNriYtduXeYhl4/w74o/1mJ8dcHAf709Trds8Gixqh6CH5B4d3by5zvzFyp8903Gnr93FuUiKV0oopOOKkhpYo7NFU9hKCs0T0b4sr4JlfGN3Fe83EqD4RBr0j/fJiffLbA691efje8WtQYVQ8hrWfqkEJCQ0hofDy2zuvd3pOVEw6aayfJXx4EePvmIm9dX+CH17y82u6modfPiD/KbECmcybIJ1PbDLgjRfVZcxAME3ZkFddOktmAzI3vM+H/i/4lxldilk+LUIMQ9pthwoqYpn8+TP98mCeRVHUXVY7LVN1EVg1k1SCtl1Zfq3kIR2E2BGwIgA0BsCEANgTAhgDYEAAbAlAihEQi8dJAUBSFe2P3LbXZfeljeib7V6haNK/Ph8+/YKnNLoTA5mZOELWm7/43Z/ldKPttOGwIgA0BsCEANgSgAARd10kmk0iSRCQSQRCEqlUkEkGSJJLJJLpu/V8BsyCoqko0GiUYDNasJElCVdXSIMTj8Yo7cJSSZbl4CIZhIIpixSd9HIpGo5hm4YKtwzTNlxbAM4miWBiCJEkVn2Q5FIvF8kOo9OTKqVQqZUOIRHL/lnmiIOSLhhIgzNNc78DhKKDG4ax2w40OnC3zOT/fa9vE8IHn8y3Ofc+dNM8dDoIkSccQCSNNOSefy9GDEDIO7rUdbnTgqG9m/rnn+xyfa8Z5SBBCjlrDMUMYpunpN+isPwgh86xpJPvvM59lIi4nuByRZkWGYZQPwt6EcziU51vdWza5ID0db1+0lCJN08oZCc+UA0KedsONjvzggtlLqBQdvFdUMYQcOWF3eZ0gCHsg9u0eRY1XWNWzHF6YE3L3Nd/iPHROKGtiLAjhhbtDdlTkyxNWFA6HK3NOKDbJHTwnZPrei5ajSIq5LlIVhbDreNEnxsMBCAazk+LRQKgh5asrnCgI+eqOjpetrphPheqNDoCXvbpUqKq0CwEgFotVfLLHoXg8XhDAcxAAkskkoVCo4hM/CoVCIRRFeSGALAiQKb/LsowgCBV3pBQJgoAsy1mnQksQ9ls6nUaWZSRJQhTFqlQ0GkWSJBKJBOl0umjHi4ZwUuz/Q/saxpa/mrEAAAAASUVORK5CYII=;" parent="1" vertex="1">
          <mxGeometry x="1040" y="210" width="65" height="89" as="geometry" />
        </mxCell>
        <mxCell id="Vu51oKbgxh7ki2RueLfb-71" value="&amp;nbsp; &lt;span&gt;&lt;span style=&quot;font-weight: bold&quot;&gt;IF Success: invoiceNo=&quot;&quot;&lt;/span&gt;&lt;/span&gt;&lt;br/&gt;&lt;br/&gt;" style="text;html=1;strokeColor=none;fillColor=none;align=center;verticalAlign=middle;whiteSpace=wrap;rounded=0;" parent="1" vertex="1">
          <mxGeometry x="930" y="235" width="40" height="20" as="geometry" />
        </mxCell>
        <mxCell id="Vu51oKbgxh7ki2RueLfb-72" value="&amp;nbsp; &lt;span&gt;&lt;span style=&quot;font-weight: bold&quot;&gt;IF Success : invoiceNo has the value&lt;/span&gt;&lt;/span&gt;&lt;br/&gt;&lt;br/&gt;" style="text;html=1;strokeColor=none;fillColor=none;align=center;verticalAlign=middle;whiteSpace=wrap;rounded=0;" parent="1" vertex="1">
          <mxGeometry x="910" y="310" width="110" height="90" as="geometry" />
        </mxCell>
        <mxCell id="Vu51oKbgxh7ki2RueLfb-76" value="GLOBAL FAULT HANDLER" style="text;html=1;strokeColor=none;fillColor=none;align=center;verticalAlign=middle;whiteSpace=wrap;rounded=0;" parent="1" vertex="1">
          <mxGeometry x="1171.11" y="100" width="130" height="20" as="geometry" />
        </mxCell>
        <mxCell id="Vu51oKbgxh7ki2RueLfb-77" value="" style="shape=image;verticalLabelPosition=bottom;labelBackgroundColor=#ffffff;verticalAlign=top;aspect=fixed;imageAspect=0;image=data:image/png,iVBORw0KGgoAAAANSUhEUgAAAPQAAACLCAYAAABWW7TqAAAc3klEQVR4nO2d+3Mb5bnH+RPyY/6P/ETiOIBTKK17SktpO5k54bQwgTatCGfaAapzaDkpyWlIQhElE9lW7raTKRiL0B7AMYnthNyQnYToYtmWZfkmW4okW5fVbfd7fpBf9dVqd62VVokins/MM2NprX3fvXz3eZ5338sjgiBAzXK5HF77JoD3JxchiiJZg9tUYP6+l/nZpevo+3y4Lvb10H/Bcfn3DWmL3v+FeO+opuVDvVVdQ0EUFS0tSUhLEjKAqj0CgiAamkwuh3g6jdV0Gql8XlPUj2zYsAFkZGSNZxs3bsSOHTswNjYGSZIQjsUQTSY1Rf2If2YGZGRkjW1jY2NYicexEA5jNZ1WF/T9DyAIgqiEcDiM3bt3Y8OGDdixYwdEUcT03BxiqRQEUSRBE8TDRjgcLobfADA5M4NIIkGCJoiHFZZTA8CE34978TgJmiAeVkjQBNFEkKAJookgQRNEE0GCJogmggRNEE0ECZogmggSNEE0EXUVtARAlICcKCEnSsiLEkSp8D1BEMZTV0Fn8hICsQxuLSZxcy6Bb4IpLK5mkRVJ0gRRD+oiaAlAJJXDFxMxmAdm8Wz3BJ464cHPz07izxfnMeJfxWo6X3ev7fP50N7ejk2bNpVYe3s7fD4fACAajeL5558v+59NmzbBbDZDEAQAgN1uL9lmsVgAAIIgwGw2K/5+06ZNsNvtuuttsVjw/PPPIxqNFr9TqydfR4fDUfwdq1c15d8v+PpWi/y68OZwOAys7cOB4YKWAAg5Ef3OCJ7rmUCL1YVHjzqL1mJ1Yeffp/DR3QhuzCXgmE8iEMsgmzde0j6fDzt37iyKl2GxWIpCYELRuvh2u73sxrNYLEVRM4wQUTQahdlshtlsLqmTUj1ZeaweD4Og+fNmlKD5h9q3HcMFnRclOJdS+O15P1qsLmzmxMystdOFZ7sn8EKfDy/2+fDaZwGcHgthOZFFXpIM89Zqgua/r0TQSuL1+XwwmUwlN6MRIrLb7bBYLGU3qlo9eVE8bII2AhJ0KYYLOpuX0O+K4Psnx8uErGabrU5876QHB4YXkMyKEA0StVGCVvLQSlQiIofDoXoDst87HI6yutcqaBaVsLCdpR1K54gXHZ+28KmK1jZ5GsLqxIfHFoulzEPz2/lzpFZ39hstQTscDphMJphMJrS3t2NkZAQmk6lYP3Y+LRaLajrFthn5IKoXhgmatWgnsyKOOZaxrdNVsaAfPerEFqsTTx73oN8VQTIrIpMvtIzX0n6mJ+TWysHkN+h6gqzWK8q9PvPUQO0ht8ViKRECOwcsxFcqR14m/2CTb+PLZlGG0jlRC7mV6s7+T63ugiCo5tBsu8PhKLmW7CHEXyP+ocCOy263F+tRSwRwe+EKzt56D+8Ov4p9g7twePhVnB17D7fmL1e1v/UwRNCiBGTFQov26bEQXuzzoaVDn6CZqNtPjeOXfVN444tZ/GM8iqiQr7rRTK1RjPcKlXhotX0anUPb7faS3/LevNZGMXmoy9/E/N8+nw/79+8vikHtXFWa//ICkdeD34e8flrb1OquhLye8oe80jVj+5Q/7PQQjM/ixM392De4S9WO33wbi6szuvethSGCFnIihv2r+HG3F9s6XYXc2apPzI8edWLzmqi3drjQ2ulCm82NtwbnEIhlkK/CVauFrfwF0itoft/t7e2KHrOaG2C9SKGSelYr6Gg0CpPJBJ/PV/JQ0crjtYTEvCILj3fu3Kkp6GAwWHbe7peglc5rrYIOxmeLHnk9Ozy0x1BRGyJo51IKPzztxZYqRLyePWFz44NrS4gIed0HpxRyy4W4nlD4m13+vVoIXI2g1XJrdjPXU9Bse29vL/bv31881mo8tLzcSkPuZvLQ63nmfYO7cGb0IAa857BvcBeO3Xhb1/61METQb16Yw9YO5RbtWo295nLMJ3QfnFoOrZULKqH0XlipoawWQfP5Mg+7If1+f10Fzbwq/z96cmh2rt1ud1lez7+PrzaHrpeg5ftTyqH1XM/bC1fWFfMHV96AkEsCAM6MHsS+wV0Ymx+uuAwtDBF0+6lxw7wzC7tb1sLuxzpdePqEB19Oreg+ODVBs4tmNpsRDAZVQ121Fli1hrFqW7nV6snXtbe3t66CVnuwVdrKzTc88SE3K1cucLPZjKtXr6qeY3n0oCVorU49lQialaHWyq1H0GdvvbeuoJfiswCAG4ELxe96xt6tuAwtDBH09mNuw7zzZqsTbTY3Xv88gL8ML+DA8AIOjizCuZQy5IAJop6slzvfCFwAACzFZ0u+PzT0iiHlGyLol/qn0VJDyL3ZWgitWztdeLzLjZ+dnUAglkEiIyKZLViO+n8TDwG8SAe854p58r7BXfjwzhEAQDqXwgdX3igTuxEYIuh+VwRtNnfVYXdrhwuvfOrHidEQPnZGMDAZg5AT4VpO4b2vgrgWiFfVyk0Q95vD7H3z0J7idzORcXx450hZ3lzqoU2GlG+IoMPJHCxfBbHd5tbtqTcfdeJ3/wxgbCGJlXQeqTWPvJrO4zNvDE8d96D7Vrgufb0JwmjOjv0rh7Zd31vMlxkjvvOKoXjP6GFDyjesY8lSPIuP7kbwsn0aTx73oLXDha0VWGunC3Z3FEJORConoud2GHs+ncELfT481zuBNpsbp8ZCSOXE4rhqCr+JRuXW/OUysY74zgMAZqLjqrn16NyQIeUbImgJQF6SkMqKiKRyWEpkEYxXZkvxLFJrOfLJ0RCeOu4pdE7pcGGL1YnHu9w4NRrCOyMLeOaMFz/q9uL3/xcw5OAJoh4cv/l2mWBt1/fi8NAeRTHbbuw1rOwHOgWRKBUGcwi5Qoi949wktlidJSH7tk4XTo2GsPfLebTZ3Nh+zI1ff+KvuAz+dYTaOGWfzwebzVb8zPfdlr9rZvuTv8IhCMbi6oyqeOV28JIJCyvThpX9QAWdyUs4dHkRbTY3Wtc8sjz/3tbpKoTcWRHZvFSwKkJuh8OhOFqGCZQXON/Jg/8d//5TbX8EARREfexGuaeWe2YjxQw8YEHnRAk9t8P47Xk/Xu6fRput/H02E/REWMDYQhK3FpIYD+kf+SIf+ACgpNMD3+OJDU5gn202m2oXUILQYmx+GD1j7+LQ0CvF1uye0cOG5cxyHqigJQCSVAi9M3kJr3zqVw2537wwhxZroSHtxT79ouJFyyMIQkn/ZaURT+y3bFztwzI2lvj20TDT+IqShKHpVbzQ58N3jnnQ2lkQ7+NdhVbu8+4o3r2yiL9eCaLndljXvuWi5ZF7ZLnwmcDtdnsxb+YnIiCIRqJhBC2hMKb65lwC5+7cw4k1r8xeW2VqeA8tFy2PPBe22WwlI3HYg4D1C2aoeXyCeJA0jKCBQvidF6Viy/fA5AqePuFBz+1wTe+etRqw5CG2fDwwP6iAn5ZHPp8YQTQCDSVoHlECQskcHPMJzK9kkJeqF7RSgxhD7mn5iQbko6LolRXR6DSsoNkcZaIkFSYNpM5hBLEuDStogiD0Q4ImiCaCBE0QTQQJmiCaCBI0QTQRugTtn5nBTCAA/8xM0egzfabPjfWZPDRBNAkUchNEE0GCJogmggRNEE0ECZogmggSNEE0ESRogmgiSNAE0USQoAmiiairoNmYZrbaRV6UIEqF7wmCMJ66CjqTlxCIZXBrMYmbcwl8E0xhcTVb1bzaBEGsT10ELQGIpHL4YiIG88Asnu2ewFMnPPj52Un8+eI8RvyrWE3n6+615QuSM+OnEOKnHJIbPwWRfGFx+aLgWouO68VisZSt2KFWT76OWgu+NyLyxdirQWvB92/jJI6GC1oCIORE9DsjeK5nAi1WV8nE+S1WF3b+fQof3Y3gxlwCjvkkArFMXVaX9Pl82LlzZ9n8XxaLpSgEJhSti2+32xWXxJFPPGiEiKLRKMxmc9k0wUr1ZOXxExk2uqD582aUoOVzv32bMVzQeVGCcymF3573o8WqvLRsa6cLz3ZP4IU+H17s8+G1zwI4PRbCciKLvCQZ5q3VBM1/X4mglcSrNPOnESJiM43Kb1S1evKieNgEbQQk6FIMF3Q2L6HfFcH3T45Xvka01YnvnfTgwPACklmxMCmgAQdnlKCVPLQSlYjI4XCo3oD8BP7yutcqaBaVsLCdpR1K54gXHZ+2yGc7VdsmT0NYnfjwmM22yp9Xfjt/jtTqzn6jJWh+xZP29naMjIzAZDIV68fOJ7+ooTydYtsehtVSDBM0a9FOZkUccyxjW6erYkE/etSJLVYnnjzuQb8rgmRWRCZfaBmvpf1MT8itlYPJb9D1BFmtV5R7fX7RvFpDbovFUiIEdg5YiK9UjrxM/sEm38aXzc9nrlQPpfoq1Z39n1rdBUFQzaH5RQX5a8keQvK52OX3g91uL9aj2ghAkkR8PXsR3aOHcfCSqbjaZPfoIdyc/RKilNe9z/UwbMH3rFho0T49FsKLfT60dOgTNBN1+6lx/LJvCm98MYt/jEcRFfJVN5qpNYrxXqESD622T6NzaKV1tdZ78FTaKCYPdfmbmP+bX2VE7kH5c1Vp/ssLRF4Pfh/y+mltU6u7EvJ6yh/ySteM7VP+sNPDVPgujnz1B83VJz+48gYmw9/o3rcWhghayIkY9q/ix93ewmLtVhc2W/WJ+dGjhUXqtlid2NrhQmunC202N94anEMglkG+CletFrbyF0ivoPl9t7e3K3rMam6A9SKFSupZraD5lTXlK4eo5fFaQmJekYXHO3fu1BR0MBgsO2/3S9BK57VWQXtDtypaG5qZZ3lU1/61METQzqUUfnjaiy1ViHg9e8LmxgfXlhAR9IcnSiG3XIjrCUVtGVmtELgaQavl1uxmrqeg2fbe3t6SRf2q8dDycisNuZvFQ6eycbw7/Oq6Ih7wnsP48hgOD+3BoaFXkMisVlyGFoYI+s0Lc9jaodyiXaux11yO+YTug1PLobVyQSWU3gsrNZTVImg+X+ZhN6Tf76+roJlX5f9HTw7NzrXb7S7L6/n38dXm0PUStHx/Sjm0nus57PtkXTF/eOcIACCdS8F2fS/2De7Cpan+isvQwhBBt58aN8w7s7C7ZS3sfqzThadPePDl1Irug1MTNLtoZrMZwWBQNdRVa4FVaxirtpVbrZ58XXt7e+sqaLUHW6Wt3HzDEx9ys3LlAjebzbh69arqOZZHD1qC1urUU4mgWRlqrdx6BN11/S1NMduu74WQSwIAzoweLH7fce2PFZehhSGC3n7MbZh33mx1os3mxuufB/CX4QUcGF7AwZFFOJdShhwwQdST/YMvFUV6eGgPDg/tKfkcjAcAAAPec2ViNwJDBP1S/zRaagi5N1sLoXVrZ2GB95+dnUAglkEiIyKZLVgty8kSxP1iHyfopfgsYkIYH945gn2DuzATHQcA3Fn4StF7G4Ehgu53RdBmc1cddrd2uPDKp36cGA3hY2cEA5MxCDkRruUU3vsqiGuBeFWt3ARxv+m89lbRG98IXCh+HxPCAICl+KyimK1X3zSkfEMEHU7mYPkqiO02t25PvfmoE7/7ZwBjC0mspPNIrXnk1XQen3ljeOq4B923wnXp600QRjM0ZS/LmZfiswAKouZDcN4uTX5sSPmGdSxZimfx0d0IXrZP48njHrR2uLC1AmvtdMHujkLIiUjlRPTcDmPPpzN4oc+H53on0GZz49RYCKmcWBxXTeE30agks6uKoh3wniu2aMvt4CUT4pmYIeUbImgJQF6SkMqKiKRyWEpkEYxXZkvxLFJrOfLJ0RCeOu4pdE7pcGGL1YnHu9w4NRrCOyMLeOaMFz/q9uL3/xcw5OAJoh6ML4/q6ljiXjJumOcDnYJIlAqDOYRcIcTecW4SW6zOkpB9W6cLp0ZD2PvlPNpsbmw/5savP/FXXAb/OkJtnLLP54PNZit+5vtuy195qHX7JAieyfAd/O3K65pCfv/ya/CGbhta7gMVdCYv4dDlRbTZ3Ghd88jy/Htbp6sQcmdFZPNSwaoIuR0Oh6IImeB5gfOdPNjv5D3G2GghglAjL+ZwIzCI0453cODib7BvcBcOXNyN0453cCNwATkxa3iZD1TQOVFCz+0wfnvej5f7p9FmK3+fzQQ9ERYwtpDErYUkxkP6R77IBz4AKOn0wPd4YoMT2GebzVb2QFDaH0E8aB6ooCUAklQIvTN5Ca986lcNud+8MIcWa6Eh7cW+8h5V66HmUQVBKOm/rDTiif1WqXsgQTQSDTONryhJGJpexQt9PnznmAetnQXxPt5VaOU+747i3SuL+OuVIHpuh3XtWy5aHrlHlgufFzgLz9kIIgq5iUajYQQtoTCm+uZcAufu3MOJNa/MXltlangPLRctjzyUttlsJSNxlB4EStMPEUQj0DCCBgrhd16Uii3fA5MrePqEBz23wzW9e1ZrEAPKQ2z5eGB+xI/D4WjYuboIAmgwQfOIEhBK5uCYT2B+JYO8VL2gtRqw5CE2P9EAP+KHXlkRDwMNK2g2R5koSYVJA6lzGEGsS8MKmiAI/ZCgCaKJIEETRBNBgiaIJoIETRBNhC5B+2dmwGwmEAB9ps/0ufE+k4cmiCaBQm6CaCJI0ATRRJCgCaKJIEETRBNBgiaIJoIETRBNBAmaIJoIEjRBNBF1FbSEf81AklmbgjdPY5sJom7UTdASACEnYjwkYGh6FV9MxHDZH8d0JF3T/GB6kK9fzIxf55ifoURu/Iwl8nWI5WsIa61RrBelBebV6ilftF1tfehGRL52czVorQ/9bZzEsS6ClgAsrmZx7s497PnHDJ4548V3T3jwk54JvPZZAOfdUdxL5Uq9dh0OTmtxb/mUvFoX3263l9148kXIgeoWCJcTjUZhNpthNpsVp0biv2Pl8YupN7qg5Yu/GyFo/qH2bcdwQUsSkMiIODkawg9OjaPF6iqZOH+L1Ymf9k7AemMJn3ljGJhcgXtZQCorwug16NQEzX9fiaCVxKs086cRImITE8pvVLV68qJ42ARtBCToUgwXNJuKd9fHPrQoLG3z6FEntna48PQJD37U7cWz3RP4979PYd+leQRiGeRE43JsowSt5KGVqERE/IT9ar93OBxlda9V0CwqYWE7SzuUzhEvOj5t4VMVrW3yNITViQ+P2eSM/Hnlt/PnSK3u7DdagnY4HDCZTDCZTGhvb8fIyAhMJlOxfux88mugydMptu1hmBzSUEGzvPncnXt46rin8jWi11aZ/M0nfkSFPDJrYbgooaZQXE/IrZWDyW/Q9QRZrVeUe31+ja1aQ26LxVIiBHYOWIivVI68TP7BJt/Gl81Pf6xUD6X6KtWdn0JZqe6CIKjm0Gy7w+EouZbsISSfullpVRRWj4cpAjBM0JJU8M6hZA5Hri3hsU5XxYJmofhjXW4cub6EuZUMQskcEhmxpvm41RrFeK9QiYdW26fRObTSMjzrPXgqbRSTh7r8Tcz/zS9KIPeg/LmqNP+VLxukJmh5/bS2qdVdCXk95Q95pWvG9il/2OlFkkR8PXsR3aOHcfCSqbgWdPfoIdyc/RKilK9qv1oYIuicKCGczOGibwVvX5zHT3snsLVDn6A3H3Vii9WFJ7rc+MGpcfziIx8+uBbE3aVU1fm1WtjKXyC9gub33d7erugxq7kB1osUKqlntYLmV9aULzSglsdrCYl5RX7ZIC1BB4PBsvN2vwStdF6NEPRU+C6OfPUHzeVkP7jyBibD3+jetxaGCDqczKHjxhK+e8KjuCSsXmFvthY89tYOF379yTSuzSYg5ETdB6cUcsuFuJ5Q5MvI8t+rhcDV3ABquTW7mespaLa9t7e3ZOmfajy0vNxKQ+5m8tDe0C1dC757lkd17V8LQwTd74rgeyfHscVavZDV7PEuN/40OAd/NK374NRyaK1cUAml98JKDWW1CJrPl3nYDen3++sqaOZV+f/Rk0Ozc+12u8vyev59fLU5dL0ELd+fUg6t53qmsnG8O/zquiIe8J7D+PIYDg/twaGhV5DIrFZchhaGCPqFPh+2drhq8sxqnrqlw4Ufd3tx2a//gNUEzS6a2WxGMBhUDXXVWmDVGsaqbeVWqydf197e3roKWu3BVmkrN9/wxIfc/Brc/Daz2YyrV6+qnmN59KAlaK1OPZUImpWh1sqtR9DDvk/WFfOHd44AANK5FGzX92Lf4C5cmuqvuAwtDBF0m81tmHfevBZqP9blxvZjbjx53IPvnxrH4NSKIQdMEPWk6/pbmmK2Xd8LIZcEAJwZPVj8vuPaHw0p3xBB/+D0OLZY9TWClTeIFbzxtk4XftTtxdD0KgKxDGZjGcyuZJDI6M+hCeJ+s3/wpaJIDw/tweGhPSWfg/EAAGDAe65M7EZgiKD3fjmHx7pc2Fyll26xurD9mBs/PO3Fc70T+M15P1bTeUSFPILxLCKpHLL3qf83QdTCPk7QS/FZxIQwPrxzBPsGd2EmOg4AuLPwlaL3NgJDBO1eTuEXH/nwWJe7rKtnJd75x91enLkVxkwsg5V0HqvpPFbSeQxMxPDMGS/O3gnftwEdBFELndfeKnrjG4ELxe9jQhgAsBSfVRSz9eqbhpRviKAzeQnXZxP43T8DeOaMV1cD2RarEx03lxEV8hByIpxLKXwxEYPdFcWB4QV894QHp8ZCVb22Ioj7zdCUvSxnXorPAiiImg/Bebs0+bEh5RsiaEkC0jkJvkga/xyP4eRoCF1fL6Pr5vpm+3oZE2EBmbyEKzNx7P7Ej6dPjOPxLjdaOwuh+MnRED6fiKHr68L/97sihhw8QRhNMruqKNoB77lii7bcDl4yIZ6JGVL+A52xRELhYSBKQDon4tV/zKBF5t2fsBUE/d8Ds2jpcKG104UX+spf76jBv45QG6fs8/lgs9mKn/m+20odK5Re4RAEY3x5VFfHEveSceO2H6igM3kJPbfDMJ3346X+abTZ3GUNa0/Y3Dg1GsJ4SMDYQhK3FpPwhPR3lHc4HIqjZZjgeYHznTzY7/iRUFr7IwgAmAzfwd+uvK4p5PcvvwZv6Lah5T5QQQs5Ee9eWcRTxz14rMtV5p15Qa+mCzm2kBORriKflg98AFDS6YHv8cQGJ7DPNpsNgiCUdIvkRxQRhBJ5MYcbgUGcdryDAxd/g32Du3Dg4m6cdryDG4ELyIlZw8t8oIIWpcLAjnReQjyTx398OIUWq3LI/afBOTzR5UabzY1f9U/rLosXLY+SUOWDBOS9nKqdWogg6k3DzPqZEyV8dPceftIzgTabG9s6Xdja4cL2NUFbbyzhV/Zp7P7Ej/1DC7r2LRctj9wjy4XPBM532ZSH3wTRKDSMoCWpEIJ/7o3h4Mgi3hqcw6/s03jyuAenRkNIZsW1SQ8Kpge5aHnkubDNZisZicMeBHKhq3l8gniQNIyggX+F4EJOxGo6j8+8Mfzb6XH03K6tY4lWA5Y8xJaPB2a/479Xmk+MIBqBhhI0T16UMLeSweDUCibvCTXNXKLUIMaQe1r+1RQ/4od/lUWvrIhGpWEFLUkFUTOjyfkJYn0aVtAEQeiHBE0QTQQJmiCaCBI0QTQRugTtn5kBGRlZY9vGjRsrE/T9f94QBFEJ4XAYu3fvxoYNG7Bjxw6Iori+oJk7JyMja0zbuHEjxsbGcC8SweTMDCKJBAmajOxhs40bN2LHjh0YGxuDJEm46/Fgem4OsVSKQm6CeBgRRRH3IhHc9XjgmpjAQjiM1XQaaUlSaRTz+6Flvxq4hv8ZcWj+DxkZmXE2IbPJmRlMz81hIRxGNJlEKp9XF3QikUA8Hle1/7w5jkN3fZr/Q0ZGZpzd4yySSCCSSCCWSmE1ndYUcwbAI6IoQste+yaA9ycXNf+HjIzMOBNULC1JmmKuKId+3TmHv/mWDM0LCIJQR0uw6xkJmiAajFoE/f/exJAfTa9u+wAAAABJRU5ErkJggg==;" parent="1" vertex="1">
          <mxGeometry x="1158.33" y="195.25" width="174.67" height="99.5" as="geometry" />
        </mxCell>
        <mxCell id="Vu51oKbgxh7ki2RueLfb-81" value="&lt;div&gt;&lt;b&gt;FAULT HANDLER &lt;br&gt;&lt;/b&gt;&lt;/div&gt;&lt;div&gt;&lt;b&gt;FOR EACH SERVCE&lt;/b&gt;&lt;/div&gt;" style="text;html=1;strokeColor=none;fillColor=none;align=center;verticalAlign=middle;whiteSpace=wrap;rounded=0;" parent="1" vertex="1">
          <mxGeometry x="1080" y="155.25" width="150" height="40" as="geometry" />
        </mxCell>
        <mxCell id="Vu51oKbgxh7ki2RueLfb-85" value="" style="html=1;shadow=0;dashed=0;align=center;verticalAlign=middle;shape=mxgraph.arrows2.jumpInArrow;dy=15;dx=38;arrowHead=55;direction=north;" parent="1" vertex="1">
          <mxGeometry x="1270" y="120" width="50" height="120" as="geometry" />
        </mxCell>
        <mxCell id="Vu51oKbgxh7ki2RueLfb-93" value="" style="edgeStyle=orthogonalEdgeStyle;rounded=0;orthogonalLoop=1;jettySize=auto;html=1;" parent="1" source="Vu51oKbgxh7ki2RueLfb-87" target="Vu51oKbgxh7ki2RueLfb-89" edge="1">
          <mxGeometry relative="1" as="geometry" />
        </mxCell>
        <mxCell id="Vu51oKbgxh7ki2RueLfb-87" value="CALL FUSION API" style="rounded=1;whiteSpace=wrap;html=1;" parent="1" vertex="1">
          <mxGeometry x="1340" y="299" width="90" height="40" as="geometry" />
        </mxCell>
        <mxCell id="hMqJd1VVKTTrly270Pj9-2" style="edgeStyle=orthogonalEdgeStyle;rounded=0;orthogonalLoop=1;jettySize=auto;html=1;" parent="1" source="Vu51oKbgxh7ki2RueLfb-89" edge="1">
          <mxGeometry relative="1" as="geometry">
            <mxPoint x="500" y="600" as="targetPoint" />
            <Array as="points">
              <mxPoint x="1385" y="530" />
              <mxPoint x="1160" y="530" />
              <mxPoint x="1160" y="650" />
            </Array>
          </mxGeometry>
        </mxCell>
        <mxCell id="Vu51oKbgxh7ki2RueLfb-89" value="&lt;div&gt;Database Update&lt;/div&gt;&lt;div&gt;PROCESS &lt;/div&gt;" style="rounded=1;whiteSpace=wrap;html=1;" parent="1" vertex="1">
          <mxGeometry x="1330" y="370" width="110" height="40" as="geometry" />
        </mxCell>
        <mxCell id="Vu51oKbgxh7ki2RueLfb-97" style="edgeStyle=orthogonalEdgeStyle;rounded=0;orthogonalLoop=1;jettySize=auto;html=1;" parent="1" source="Vu51oKbgxh7ki2RueLfb-95" target="Vu51oKbgxh7ki2RueLfb-87" edge="1">
          <mxGeometry relative="1" as="geometry" />
        </mxCell>
        <mxCell id="Vu51oKbgxh7ki2RueLfb-95" value="&lt;div&gt;only if we get QR CODE ,SIGNATURE,&lt;/div&gt;&lt;div&gt;INVOICENUMBER&lt;/div&gt;" style="rounded=0;whiteSpace=wrap;html=1;direction=south;" parent="1" vertex="1">
          <mxGeometry x="1145.33" y="299" width="110" height="120" as="geometry" />
        </mxCell>
        <mxCell id="hMqJd1VVKTTrly270Pj9-3" value="Update Processed= YES" style="text;html=1;strokeColor=none;fillColor=none;align=center;verticalAlign=middle;whiteSpace=wrap;rounded=0;" parent="1" vertex="1">
          <mxGeometry x="1275" y="480" width="130" height="40" as="geometry" />
        </mxCell>
        <mxCell id="hMqJd1VVKTTrly270Pj9-4" value="" style="shape=image;verticalLabelPosition=bottom;labelBackgroundColor=#ffffff;verticalAlign=top;aspect=fixed;imageAspect=0;image=data:image/png,iVBORw0KGgoAAAANSUhEUgAAAEEAAABZCAYAAABhckmzAAAHAUlEQVR4nO2b+09b5xnH/W81ydLmVlVzQWJbp03Vom5qVVWTpu4mhDa1P0yTJmU/RNoq7rBQaJqwNKEQoA1R2pEBEdCRCl+5hJu52Mc+Pvaxj31un/3gBAi+xMeAL+E80vcXH97L8/HzPu/7PuY4sA1HpSdQDZYFISQINa1DQfD6fDycmGRgcGhXDycma06PpqfZCARKg3Bv7P5zAAYGh0qiWmnb2tpmcuqRpTYOyCyBgwBqFQJgee42BGwIgA0BsCEANgTAhgDYEAAbAmBDAGwIgA0BOAYIJqDqJuGkxlZMZTuuIio6mmFiltSjdasoBN0wkVI67mCS5kc7NH21xp/vrdM1E8IbTBJL6ejG8aOoKARR0eiYCfLGv7ycanXt6kybG+c1H58/DhNOapb7tWoVg6AbJt2zIeo/9XGm1c0rLa7ndKbNTV2Pj8bRNZq+WufjsQ1ufC+wKqZQNMPSWC+yikDQTZMNKc37d57wg7ZsAM90qtXFax0eznd6uNDpoa7Hx2+GVri/KBFP69Y8LWBlh2ACimYwuRbnp9cX8gLIp9Otbt79YpnvAgmiik48raPqh0uiZYWgGyYJ1WApnKJjOkhdj88yhFdaXJzr8PDBwBO6Z0PccUdYEBSSmkGpObSsEHwhhb+Pb1HX4+NCpydnLihGp1pdnG13c7HLw6UuLw29fv45uc12XC0JRNkgLIVTfDS2sbsTlOJ8Pj1LolfGN5HT1iOibBC6ZkIlh39xucJFXY+P6Q3Z8u5hGcLdB5N8OzVrGcIvby1ztr208C9WF7s8dEwHiSrWdo6BwSGudvcXLcfV7n7a+m5bhvDjPv+RL4ODutDp4R8T20QsHrBKgtB980vLEH57d5XznZ4jDf/znR4u9y/x3u1l3ru9zK+/XGHUHyWhWl8O/x75pmg5tgWR5dV1yxBG/FF+9vnioaLhdKuLN3t8vHV9gcv9S/zt202m1uJMPNXjrQShhIZmMTOWLTEKCY1PpnZo6PNzrsPDaYvb49l2Nz+/sUjfnMB/V+M8Wo/j2knycDXO74dX+ePoGnNbiZIuXGU9J4iKxqg/yod3V3Fe83Guw8Or7e6iVP+pj2+WY4iKzkxApn06yNWJLf4wssqlLg8NvX7GFiVSmoGqm6R1E7VIIOU9MZomimYgJnVCssaOrBYtIaGR0gxG/VHevrnIpS4vF7syEE+3umjo9TPkFRnwRLjcv8SP+vx8NLZefRBKsXjaIBBT8QsKfkHh/TtPONeRvZQaev0MekWuPxZw9vg40+bmV7eWihqj6iFsSGmavl7nnVtLvHNriYtduXeYhl4/w74o/1mJ8dcHAf709Trds8Gixqh6CH5B4d3by5zvzFyp8903Gnr93FuUiKV0oopOOKkhpYo7NFU9hKCs0T0b4sr4JlfGN3Fe83EqD4RBr0j/fJiffLbA691efje8WtQYVQ8hrWfqkEJCQ0hofDy2zuvd3pOVEw6aayfJXx4EePvmIm9dX+CH17y82u6modfPiD/KbECmcybIJ1PbDLgjRfVZcxAME3ZkFddOktmAzI3vM+H/i/4lxldilk+LUIMQ9pthwoqYpn8+TP98mCeRVHUXVY7LVN1EVg1k1SCtl1Zfq3kIR2E2BGwIgA0BsCEANgTAhgDYEAAbAlAihEQi8dJAUBSFe2P3LbXZfeljeib7V6haNK/Ph8+/YKnNLoTA5mZOELWm7/43Z/ldKPttOGwIgA0BsCEANgSgAARd10kmk0iSRCQSQRCEqlUkEkGSJJLJJLpu/V8BsyCoqko0GiUYDNasJElCVdXSIMTj8Yo7cJSSZbl4CIZhIIpixSd9HIpGo5hm4YKtwzTNlxbAM4miWBiCJEkVn2Q5FIvF8kOo9OTKqVQqZUOIRHL/lnmiIOSLhhIgzNNc78DhKKDG4ax2w40OnC3zOT/fa9vE8IHn8y3Ofc+dNM8dDoIkSccQCSNNOSefy9GDEDIO7rUdbnTgqG9m/rnn+xyfa8Z5SBBCjlrDMUMYpunpN+isPwgh86xpJPvvM59lIi4nuByRZkWGYZQPwt6EcziU51vdWza5ID0db1+0lCJN08oZCc+UA0KedsONjvzggtlLqBQdvFdUMYQcOWF3eZ0gCHsg9u0eRY1XWNWzHF6YE3L3Nd/iPHROKGtiLAjhhbtDdlTkyxNWFA6HK3NOKDbJHTwnZPrei5ajSIq5LlIVhbDreNEnxsMBCAazk+LRQKgh5asrnCgI+eqOjpetrphPheqNDoCXvbpUqKq0CwEgFotVfLLHoXg8XhDAcxAAkskkoVCo4hM/CoVCIRRFeSGALAiQKb/LsowgCBV3pBQJgoAsy1mnQksQ9ls6nUaWZSRJQhTFqlQ0GkWSJBKJBOl0umjHi4ZwUuz/Q/saxpa/mrEAAAAASUVORK5CYII=;" parent="1" vertex="1">
          <mxGeometry x="610" y="225" width="40" height="54.76" as="geometry" />
        </mxCell>
        <mxCell id="hMqJd1VVKTTrly270Pj9-8" value="Fusion Cloud " style="ellipse;shape=cloud;whiteSpace=wrap;html=1;" parent="1" vertex="1">
          <mxGeometry x="770" y="450" width="110" height="50" as="geometry" />
        </mxCell>
        <mxCell id="hMqJd1VVKTTrly270Pj9-9" value="URA SYSTEM" style="ellipse;shape=cloud;whiteSpace=wrap;html=1;" parent="1" vertex="1">
          <mxGeometry x="927" y="450" width="110" height="50" as="geometry" />
        </mxCell>
        <mxCell id="hMqJd1VVKTTrly270Pj9-12" value="" style="rounded=1;whiteSpace=wrap;html=1;" parent="1" vertex="1">
          <mxGeometry x="635" y="800" width="350" height="386" as="geometry" />
        </mxCell>
        <mxCell id="hMqJd1VVKTTrly270Pj9-13" value="" style="aspect=fixed;html=1;points=[];align=center;image;fontSize=12;image=img/lib/azure2/general/Globe_Error.svg;" parent="1" vertex="1">
          <mxGeometry x="770" y="750" width="30.55" height="36" as="geometry" />
        </mxCell>
        <mxCell id="hMqJd1VVKTTrly270Pj9-14" value="GLOBAL FAULT HANDLER" style="text;html=1;align=center;verticalAlign=middle;resizable=0;points=[];autosize=1;strokeColor=none;fontStyle=1" parent="1" vertex="1">
          <mxGeometry x="805" y="730" width="160" height="20" as="geometry" />
        </mxCell>
        <mxCell id="hMqJd1VVKTTrly270Pj9-24" value="" style="edgeStyle=orthogonalEdgeStyle;rounded=0;orthogonalLoop=1;jettySize=auto;html=1;" parent="1" source="hMqJd1VVKTTrly270Pj9-15" target="hMqJd1VVKTTrly270Pj9-16" edge="1">
          <mxGeometry relative="1" as="geometry" />
        </mxCell>
        <mxCell id="hMqJd1VVKTTrly270Pj9-15" value="" style="shape=image;verticalLabelPosition=bottom;labelBackgroundColor=#ffffff;verticalAlign=top;aspect=fixed;imageAspect=0;image=data:image/png,iVBORw0KGgoAAAANSUhEUgAAADQAAABHCAYAAABIzmSEAAAI/0lEQVRoge2afVRT9xnHbz316Dzt2p7O1bb2aLd1L+26dmezO9vRY905a+nWelra2aOzvtRudpvGWa3utVVkUlerAsqLoIKIVLm8qAUCMSQQAkRegnkhCQghiCSQQBKSEBISvvsDcpMLebkJwTEPzznPH89z7+95ns/v+d1ffvcCgXtMiP91AdGWOaDZLnNAs13mgGa7RBXIplPAIC+BVpSNO8J09IrOQS+9CssdSTTTBJVpATksfbhdnYyWtNfA//gBcFkEBH9fjPrDz+HG5z+BKOF5CP75OLgsApW756M5eQ001/8D+4A6SuVPlYiArL1StF58H1wWgfqE53Dr2t8woKyA0zbo937XiAXGW1VQs+PQcHQFuCwC0nPrYOoUTqt4fxI2UHvxXnBZBCSZb2FQdT2ipOauesgvbAKXRUCR9wFGA0xEJMIYyKyug+izH0F05EUYWssC3ud0OWCwadE7pIZ2SAOjXR/wXpO6Ds3Ja1DzyVIY5CXhVR5AGAH1iS+Du2seVPk7/F6/ZZDgqigO+dztuFryDirJl1GT9xIEX/4M1wtfQWHZepD8neDeTIbO0j1lfGfpJ+CyCPQIUqZHAwZAuqY8cFkENNzPp1wTd5WCrPwQtRd+jL7j82H8ggiqXckPglP4KgoEe9E1qKTF6hVlgcsi0M1PnDmgwbbK8SS84zS/waZFQfVHEGX9ICREIOUUxaC0IYEWV9eYCy6LgK7pYvSBRoeNEB58Gu1X9tH8Kr0YBeXvMepIKFWkLgbJZ8E84t0UunnHwNuzEFZda3SBWnO3ojl5Dc2n6GvA1ZJ3pg3iq72JC0BWfoghHyhZ9gaIU16NHtCAsgJcFoGh7kbK12tWo7BsQ1RhvFALQfJ3Ubkc5l7wP34AvaJz0QESn/rVlB0tn7djRmA82pq6GGWNn1H5ujgJqD/87PSBTOo6cFkEhvvbKV+1LBOS9MdnFMj4BYHy4l+j29gGAHA77aja93X0iS9PD0hF7oQk403KdrocKCjfFFZh5tNPwSHJgF10OKxxA8fmobBmX8BaIgISHlgG7Y3zlF3fdgmytMcYF2VKWgTrlbcwZjfAPajCUNazYXdJb70DADC288DddR/czuHIgKy6VnBZBBxmLeUjq3aF153Mp+FQ5gEAxpxWjDQeDWt8x8mHwJemU/n5+x7EgIIdGZC24QJq475D2Q6XHVdKfsu8O4lfg7X4DbhNnXDpJXAZ5HCbOmA++10Yj93HOA5Z9ReqhuaTv0RXxeHIgDpLP0VL+m8oW2NUoi7nhfC6I82E29wFW8l6DFeyANcI7HVxMB6/n3GcgvL3qBqUl/+E1twtkQEpL22HIu8Dym7RsCFP+ybD7iyEtXgt3EMauPqaJzaHpcCYe7xLGctgPDaPUSz2lddhdZgBAOryQ2hJjYkMSJ6zEW0F3nbXqS6i49TDzLpz5ttwSM8CgBco/YnxQGNuDPP3wJS4kFEsXv7LOCncj4OczchIX4Gig4/hIGczpZduJgVUGlDrhc1QkTu9QMpcdJx8KHQRx+8f746lxz8QxuAeVMKc9gSjZ4l3eTUFlJn2UxQeXEIDCqY0oLaCXZCf30jZzeprUKQuDt2djOUYEZ+kxrn6xTCeWABzxnLacrBV/B6mpEUh41UUxVAH1o6v/gFJJvPfIhqQpvIomhJXUXaHQYobWd8LWYC1eC3cZjU1bmxYj5GWFDgU9NcAV58Y5rQlIeMVlq2nxsjPb4SKZEUGZGgtRdX+Ryjb4jCh9Ora4N05vRQjTccA9yg1zm1Ww3ptHYa5k95wXQ7YSjeG7FI+78/UENGRF9AjTIsMyGkbGD9l326ifPm8PwbvTtHrcBlktKBuUwcsBTGwlW7EZBntroQ5fWnAeD1Ji1DedHS8HoseXBYBS484MiAAaEpcBTX7EGXzJKm4FWSns3G2Y8wxRIsx5rTCpRXB1T+1kLFhA8xnnwkYj39pJXVA7RVlQXhgGWMYv0Dd/BOoT/ghZZvshqAvdTb2FtjKt8FW8QdmWr4V5rOBn0uS791lW1Jj0F60Z3pAo7ZBVO6ej35JMeUraTjMbPueptbkvYRWbR0AYKi7YXy5hfkZ2e8LXnvRHjSeWEnZ9lEbSM7WGYW5nbQIhcK/Ujml596FLOvdsGACAjmtBlTtfxg9glOUT6GrR0VRzIwBkZxtsIyYAAD9kqKJ7tyMDhAA9AjTwPtoAaxa7w4mVJxH1aWVUYcpLPsdNEYVNZnCA8vRWfpp2DBBgQBAfmETGo6uoL1g1SpyUF78WlRA+k7MB1mxBepB7yerm6ffgDjllYhgQgIBQFPSarSkxmDM54dTqbsBkvM+bp16JGKYxjPfAlm9GwM2HW0C6/79fTiGtP5KiQ6Q0zaAxuO/QFPSaowYeyi/w2VHWeMRFJeugyrlUcYgzRlPgeRsg6jN+/HD7bRDeuZt1B16BjadImIYRkDjCW2QZLyJmn89iX5JEe2aZcSEavkZkPwduPbV26jNeRHS9CVQpTwKZeo30HL6SVR/+XMUlm1AgWAvWjTltPHGdj5ECc+jKXEV7IOaacEwBvKIqbMWPTVpMLbzMDpsmnLd5R6FxWHCgPUO9OYu6Ie6YLT1wea0TLnX7bDB1CnEHWE6TJ21kRNMkrk/Gs92mQOa7TIHNNtlDmi2y70LJM0mkLPZo/GQAgBqwY7Lhd+joiweJCfUIVILQZwn1oSHE+uTh0BOoPj+onFiwZaNx9UG+H8OgkqS7XP8kMVP2DMDxJYFHBA82sTYYDEIf0m94gHSQhA3aUZl8SDjYukdlcVP6jJDIH0uSGpcLAR60CaMDlILtu99U4F8u+BT+OZ4SCeuyTmxtOAkR+vTRW9yrd7bMWl2LAT60EuOLQOg11KrgAIOCBRRhzy+caDabJ/Z0OeCzK6lLzmPD57Z88wg0yXnO5HEdIH8PEP6XJBhd+imT/FaCOKYA0l9JkyaPRXI42MMREEF3OWYPUPeGLFgZ8eCLWPYIZ9nj53tAfF2m4ybBCKLD/YM3VsyBzTbZQ5otssc0GwXxkBus+au6V0BGtVwYBfF3xW9K0D/L3LPAf0XB77R5xnIoB4AAAAASUVORK5CYII=;" parent="1" vertex="1">
          <mxGeometry x="780.0000000000001" y="820" width="52" height="71" as="geometry" />
        </mxCell>
        <mxCell id="hMqJd1VVKTTrly270Pj9-23" value="" style="edgeStyle=orthogonalEdgeStyle;rounded=0;orthogonalLoop=1;jettySize=auto;html=1;" parent="1" source="hMqJd1VVKTTrly270Pj9-16" target="hMqJd1VVKTTrly270Pj9-17" edge="1">
          <mxGeometry relative="1" as="geometry" />
        </mxCell>
        <mxCell id="hMqJd1VVKTTrly270Pj9-16" value="&lt;font style=&quot;font-size: 20px&quot;&gt;Database Insert for failed Instance with details&amp;nbsp; &lt;/font&gt;" style="rounded=1;whiteSpace=wrap;html=1;" parent="1" vertex="1">
          <mxGeometry x="720" y="920" width="180" height="90" as="geometry" />
        </mxCell>
        <mxCell id="hMqJd1VVKTTrly270Pj9-17" value="STOP /Error " style="ellipse;whiteSpace=wrap;html=1;" parent="1" vertex="1">
          <mxGeometry x="746" y="1070" width="120" height="80" as="geometry" />
        </mxCell>
        <mxCell id="hMqJd1VVKTTrly270Pj9-18" value="" style="rounded=1;whiteSpace=wrap;html=1;" parent="1" vertex="1">
          <mxGeometry x="120" y="790" width="260" height="340" as="geometry" />
        </mxCell>
        <mxCell id="hMqJd1VVKTTrly270Pj9-20" value="Sucess / Failure " style="rhombus;whiteSpace=wrap;html=1;" parent="1" vertex="1">
          <mxGeometry x="200" y="800.5" width="100" height="110" as="geometry" />
        </mxCell>
        <mxCell id="ED_AwXHOWQB_PGNyek6o-1" value="" style="edgeStyle=orthogonalEdgeStyle;rounded=0;orthogonalLoop=1;jettySize=auto;html=1;" parent="1" source="hMqJd1VVKTTrly270Pj9-21" target="hMqJd1VVKTTrly270Pj9-22" edge="1">
          <mxGeometry relative="1" as="geometry" />
        </mxCell>
        <mxCell id="hMqJd1VVKTTrly270Pj9-21" value="CALL API " style="rounded=0;whiteSpace=wrap;html=1;" parent="1" vertex="1">
          <mxGeometry x="190" y="910.5" width="120" height="60" as="geometry" />
        </mxCell>
        <mxCell id="hMqJd1VVKTTrly270Pj9-22" value="&lt;div style=&quot;font-size: 19px&quot;&gt;&lt;font style=&quot;font-size: 19px&quot;&gt;Database Update&lt;/font&gt;&lt;/div&gt;&lt;div style=&quot;font-size: 19px&quot;&gt;&lt;font style=&quot;font-size: 19px&quot;&gt;PROCESS &lt;/font&gt;&lt;/div&gt;&lt;font style=&quot;font-size: 19px&quot;&gt;- Sucess/Error &lt;/font&gt;" style="rounded=1;whiteSpace=wrap;html=1;" parent="1" vertex="1">
          <mxGeometry x="110" y="1000" width="270" height="70" as="geometry" />
        </mxCell>
        <mxCell id="hMqJd1VVKTTrly270Pj9-25" value="Errored" style="swimlane;fontStyle=0;childLayout=stackLayout;horizontal=1;startSize=26;horizontalStack=0;resizeParent=1;resizeParentMax=0;resizeLast=0;collapsible=1;marginBottom=0;" parent="1" vertex="1">
          <mxGeometry x="355" y="620" width="140" height="78" as="geometry" />
        </mxCell>
        <mxCell id="hMqJd1VVKTTrly270Pj9-26" value="Details" style="text;strokeColor=none;fillColor=none;align=left;verticalAlign=top;spacingLeft=4;spacingRight=4;overflow=hidden;rotatable=0;points=[[0,0.5],[1,0.5]];portConstraint=eastwest;" parent="hMqJd1VVKTTrly270Pj9-25" vertex="1">
          <mxGeometry y="26" width="140" height="26" as="geometry" />
        </mxCell>
        <mxCell id="hMqJd1VVKTTrly270Pj9-27" value="Details " style="text;strokeColor=none;fillColor=none;align=left;verticalAlign=top;spacingLeft=4;spacingRight=4;overflow=hidden;rotatable=0;points=[[0,0.5],[1,0.5]];portConstraint=eastwest;" parent="hMqJd1VVKTTrly270Pj9-25" vertex="1">
          <mxGeometry y="52" width="140" height="26" as="geometry" />
        </mxCell>
        <mxCell id="hMqJd1VVKTTrly270Pj9-28" value="" style="points=[[0.145,0.145,0],[0.5,0,0],[0.855,0.145,0],[1,0.5,0],[0.855,0.855,0],[0.5,1,0],[0.145,0.855,0],[0,0.5,0]];shape=mxgraph.bpmn.event;html=1;verticalLabelPosition=bottom;labelBackgroundColor=#ffffff;verticalAlign=top;align=center;perimeter=ellipsePerimeter;outlineConnect=0;aspect=fixed;outline=eventInt;symbol=error;" parent="1" vertex="1">
          <mxGeometry x="1111.33" y="188" width="47" height="47" as="geometry" />
        </mxCell>
        <mxCell id="ED_AwXHOWQB_PGNyek6o-2" value="&lt;b&gt;POSSIBLLY SEPARATE SERVICE&lt;/b&gt; " style="text;html=1;strokeColor=none;fillColor=none;align=center;verticalAlign=middle;whiteSpace=wrap;rounded=0;" parent="1" vertex="1">
          <mxGeometry x="200" y="758" width="140" height="20" as="geometry" />
        </mxCell>
      </root>
    </mxGraphModel>
  </diagram>
</mxfile>
